PathFileType	4	(X/Y/Z)	D:\TRACE\v60_Jaco2_6-2-23\BothDRS_Motion3_1-platform.trc
DataRate	CameraRate	NumFrames	NumMarkers	Units	OrigDataRate	OrigDataStartFrame	OrigNumFrames
100.00	100.00	      71	5	mm	100.00	4376	      7000
Frame#	Time	Left_Front			Right_Front			Left_Aft			Right_Aft			Post			
		X1	Y1	Z1	X2	Y2	Z2	X3	Y3	Z3	X4	Y4	Z4	X5	Y5	Z5	

4376	43.750	-769.89343	-58.80980	-663.40607	801.06934	-60.22954	-641.20502	-700.25537	57.36082	467.19977	714.13025	63.10493	569.70227	27.96376	1199.17310	-1107.06750	
4377	43.760	-769.81079	-58.61952	-663.36627	801.32642	-59.88094	-641.09204	-700.40039	56.95549	467.16867	714.32477	62.78124	569.81500	27.66550	1199.98010	-1106.20874	
4378	43.770	-769.71606	-58.13504	-663.25696	801.43091	-59.55795	-641.01117	-700.27393	56.80369	467.28946	714.47534	62.46936	569.96289	27.21992	1200.82605	-1105.36877	
4379	43.780	-769.32440	-58.01997	-663.34674	801.68579	-58.95413	-640.91595	-700.14136	56.66216	467.32361	714.47028	62.09408	570.06366	27.92850	1201.37976	-1104.91443	
4380	43.790	-769.51941	-57.62941	-663.14685	801.56110	-58.47330	-640.89478	-700.11487	56.52518	467.37930	714.53906	61.81537	570.24249	28.28134	1201.88367	-1103.86816	
4381	43.800	-769.26300	-57.10059	-662.94476	801.74561	-58.18158	-640.75873	-699.91522	56.19431	467.59830	714.53900	61.53974	570.38678	28.02406	1202.77490	-1103.07642	
4382	43.810	-769.07678	-56.69450	-663.10040	801.71863	-57.94426	-640.70038	-699.77802	55.93643	467.74927	714.65704	61.06377	570.53552	27.93559	1203.41711	-1102.49646	
4383	43.820	-769.07959	-56.20884	-663.05151	801.81085	-57.38110	-640.75415	-699.72272	55.68736	467.85400	714.76184	60.83064	570.65070	28.19390	1203.87573	-1101.81458	
4384	43.830	-769.09546	-55.61629	-662.99823	801.90814	-56.99726	-640.75385	-699.65100	55.47109	468.06046	714.88336	60.44263	570.80023	28.58651	1204.58215	-1100.68665	
4385	43.840	-769.23010	-55.40454	-663.14331	802.14264	-56.57772	-640.65619	-699.45343	55.18477	468.36380	714.94513	60.24268	570.88721	28.61259	1205.27832	-1099.94873	
4386	43.850	-768.97479	-54.93595	-663.01849	802.40015	-56.20974	-640.58466	-699.30231	54.96809	468.50436	715.00751	60.00503	570.99335	28.55064	1205.87903	-1099.42615	
4387	43.860	-768.12927	-55.11507	-663.04230	802.45343	-55.93620	-640.53784	-699.19775	54.69952	468.58282	715.14532	59.73127	571.07123	28.49098	1206.42603	-1098.64966	
4388	43.870	-767.99731	-54.85497	-662.97571	802.50586	-55.57691	-640.56561	-699.08752	54.44583	468.64896	715.38007	59.45536	571.24701	28.99076	1206.92529	-1097.53418	
4389	43.880	-767.97345	-54.51056	-662.87158	802.62720	-55.28701	-640.54236	-698.86945	54.29449	468.66928	715.47351	59.19378	571.36823	29.06730	1207.42151	-1097.02283	
4390	43.890	-767.96399	-54.12361	-662.73462	802.80640	-54.94530	-640.47827	-698.80658	54.24380	468.66885	715.60486	58.97673	571.50970	29.16641	1208.05359	-1096.43787	
4391	43.900	-767.53937	-53.45706	-662.52911	802.83868	-54.69110	-640.41766	-698.60657	53.97902	468.65341	715.92706	58.79189	571.57715	28.98073	1208.76233	-1095.92065	
4392	43.910	-767.81378	-53.42116	-663.12842	802.85974	-54.42702	-640.40973	-698.39545	53.76375	468.84988	715.97858	58.57436	571.59308	29.31435	1209.27026	-1095.01758	
4393	43.920	-767.57800	-52.90942	-662.83746	803.07703	-54.10948	-640.34131	-698.27863	53.36160	468.88739	715.94720	58.31167	571.61151	29.64789	1209.62939	-1094.49158	
4394	43.930	-767.40985	-52.66885	-662.78491	803.26855	-53.82970	-640.24060	-698.22034	53.14826	469.17862	716.17059	57.87173	571.76172	29.82890	1210.07886	-1093.97485	
4395	43.940	-767.28998	-52.30748	-662.64545	803.48566	-53.34532	-640.08710	-698.04633	53.05941	469.31564	716.36609	57.65648	571.91443	29.85034	1210.54773	-1093.67029	
4396	43.950	-767.13055	-51.84800	-662.58453	803.63196	-53.07336	-640.07178	-697.83044	52.91833	469.40948	716.52478	57.44353	572.06219	29.84289	1210.83044	-1093.18335	
4397	43.960	-766.85779	-51.50108	-662.58234	803.92615	-52.79971	-640.05579	-697.64063	52.72917	469.42444	716.70709	57.20996	572.26056	30.14508	1211.37244	-1092.60022	
4398	43.970	-766.65985	-51.33160	-662.48718	804.03955	-52.49674	-640.02600	-697.41742	52.51909	469.45084	716.88464	56.80360	571.98926	30.10761	1212.11438	-1091.64258	
4399	43.980	-766.20471	-51.58004	-662.53162	804.18823	-52.33057	-640.06671	-697.27643	52.45063	469.55188	716.96222	56.67529	572.10028	30.20518	1212.36536	-1091.16565	
4400	43.990	-765.97351	-51.32765	-662.37134	804.32904	-52.17752	-640.00629	-697.06903	52.28146	469.56955	717.14203	56.69218	572.30481	30.81626	1212.79614	-1091.10876	
4401	44.000	-765.88275	-51.02755	-662.22113	804.69354	-51.93308	-639.90155	-696.90216	52.15693	469.62915	717.45984	56.63231	572.38757	30.91759	1213.14282	-1090.58398	
4402	44.010	-765.87323	-50.54409	-661.96417	804.97992	-51.59757	-639.85718	-696.76910	52.07311	469.67651	717.82452	56.43925	572.44977	30.98591	1213.47278	-1090.10510	
4403	44.020	-765.71808	-50.29298	-661.84119	805.12738	-51.43124	-639.88324	-696.42285	51.77599	469.66083	718.05603	56.23562	572.49048	31.27806	1213.89905	-1089.28406	
4404	44.030	-765.48602	-50.32135	-661.98944	805.21234	-51.23343	-639.88568	-696.28448	51.64910	469.68549	718.22083	56.09463	572.61646	31.10825	1214.05981	-1088.55420	
4405	44.040	-765.69305	-50.35409	-661.95831	805.12598	-51.35583	-640.00366	-696.13635	51.49656	469.82620	718.42499	55.98977	572.73572	31.65561	1214.69775	-1088.37732	
4406	44.050	-765.17188	-49.71917	-662.01642	805.64227	-50.81816	-639.82703	-695.96057	51.32224	469.98227	718.53656	55.80818	572.79315	32.06546	1215.04041	-1088.02405	
4407	44.060	-764.94861	-49.41090	-662.00342	805.90454	-50.51614	-639.81628	-695.70142	51.25257	470.15274	718.77991	55.68793	572.84143	32.13263	1215.21130	-1087.79578	
4408	44.070	-764.66016	-49.38899	-661.98657	805.67804	-50.82530	-640.10181	-695.38599	51.13523	470.27585	719.04926	55.57917	572.85883	32.30995	1215.41516	-1087.39893	
4409	44.080	-764.43738	-49.34213	-661.94452	805.85883	-50.71227	-640.08038	-695.22089	50.98482	470.39557	719.32898	55.37684	572.86444	32.72806	1215.82361	-1086.88831	
4410	44.090	-764.00165	-48.95047	-661.69458	806.24969	-50.58851	-639.91809	-695.06586	50.88499	470.41113	719.49060	55.18383	572.88391	32.91729	1216.19702	-1086.46472	
4411	44.100	-764.02710	-48.61207	-661.76965	806.55518	-50.41432	-639.76544	-694.81317	50.66497	470.33234	719.71472	55.00754	572.93610	33.15704	1216.52576	-1086.21619	
4412	44.110	-764.05743	-48.54284	-662.02350	806.86493	-49.96718	-639.70905	-694.49329	50.61713	470.31003	720.00922	54.88901	573.04346	33.49754	1216.70508	-1086.04077	
4413	44.120	-763.36523	-48.00903	-661.92975	807.06696	-49.74839	-639.63757	-694.17572	50.43789	470.35678	720.25354	54.67961	573.15930	33.39143	1217.00146	-1085.81714	
4414	44.130	-763.37927	-47.82361	-662.15125	807.48578	-49.30182	-639.53046	-693.76324	50.34597	470.43573	720.58960	54.56670	573.23840	33.42708	1217.42322	-1085.42981	
4415	44.140	-763.01837	-47.54887	-662.04156	807.75195	-49.16792	-639.50732	-693.29614	49.71702	470.59903	720.74756	54.52292	573.26837	33.51762	1217.75500	-1084.89758	
4416	44.150	-762.74756	-47.42583	-661.96320	808.01862	-48.97338	-639.52411	-693.45752	49.63718	470.55942	720.80603	54.33583	573.33929	34.42737	1218.24219	-1084.46619	
4417	44.160	-762.56470	-47.27529	-661.86334	808.26831	-48.79707	-639.48688	-693.29858	49.55035	470.62924	721.02161	54.23425	573.37140	34.71453	1218.37402	-1083.87427	
4418	44.170	-762.34760	-47.18413	-661.69244	808.53497	-48.68476	-639.49860	-693.06042	49.52947	470.66910	721.29889	54.07425	573.47357	34.53903	1218.63745	-1083.38257	
4419	44.180	-762.03278	-47.31863	-661.96442	808.79926	-48.49021	-639.44910	-692.68121	49.46620	470.79221	721.64850	53.89823	573.51349	34.70247	1218.91113	-1082.96204	
4420	44.190	-761.75159	-46.97415	-661.71783	809.10760	-48.26482	-639.34985	-692.45300	49.36015	470.86624	722.03064	53.75138	573.54150	35.08963	1219.14099	-1082.61743	
4421	44.200	-761.61255	-46.70662	-661.50555	809.39917	-48.12406	-639.29230	-692.19055	49.22721	470.94727	722.27747	53.68293	573.53271	35.57749	1219.43799	-1081.99683	
4422	44.210	-761.25250	-46.56273	-661.47577	809.64349	-48.00713	-639.30139	-691.93890	49.08833	471.02783	722.43787	53.56192	573.57806	35.91107	1219.71716	-1081.62292	
4423	44.220	-761.04218	-46.40761	-661.39264	809.75732	-47.82580	-639.33228	-691.76208	49.01545	471.05972	722.62646	53.51696	573.71655	36.04720	1219.98218	-1081.59509	
4424	44.230	-760.58636	-46.55994	-661.47021	809.87775	-47.56058	-639.24768	-691.60864	48.94682	471.09378	722.76569	53.40771	573.79669	36.19054	1220.39868	-1081.35449	
4425	44.240	-760.44000	-46.28368	-661.41235	810.15424	-47.27179	-639.14777	-691.37762	48.79704	471.17215	723.08185	53.16230	573.97168	36.21008	1220.72083	-1081.18677	
4426	44.250	-760.15216	-46.21498	-661.41937	810.36389	-47.04500	-639.10297	-691.12671	48.53926	471.25821	723.47314	52.94891	573.95422	36.11307	1220.92834	-1080.80872	
4427	44.260	-760.24786	-46.08831	-661.36780	810.53833	-46.90973	-639.10284	-690.80170	48.29879	471.36111	723.64685	52.64705	574.02948	36.28262	1221.10181	-1080.74939	
4428	44.270	-759.84729	-45.61165	-661.33850	810.65741	-46.72344	-639.15509	-690.55981	48.08505	471.48102	723.69733	52.44240	574.11322	37.08802	1221.66931	-1080.28625	
4429	44.280	-759.72418	-45.30294	-661.40332	810.91290	-46.53526	-639.17883	-690.33984	48.05513	471.54962	723.99915	52.40228	574.24200	37.46294	1222.18542	-1079.57520	
4430	44.290	-759.47705	-45.11750	-661.45947	811.23901	-46.26224	-639.11627	-690.10370	48.03505	471.63025	724.12347	52.24577	574.29407	37.58090	1222.51343	-1079.02454	
4431	44.300	-759.22156	-44.59637	-661.30219	811.77094	-45.87886	-638.93024	-689.86005	47.97825	471.66461	724.46265	52.08230	574.29456	37.53622	1222.87439	-1078.54199	
4432	44.310	-758.87250	-44.31733	-661.27356	811.87109	-45.71760	-638.94891	-689.60376	47.79608	471.73105	724.86890	52.01059	574.30402	37.34753	1222.93152	-1077.85217	
4433	44.320	-758.77283	-44.14519	-661.32050	812.02661	-45.51811	-638.89178	-689.45642	47.53836	471.87677	725.10400	51.74891	574.36035	38.39467	1223.57129	-1077.11621	
4434	44.330	-758.71967	-43.94098	-661.31458	812.18030	-45.31172	-638.82660	-689.27698	47.37886	472.04425	725.29907	51.40306	574.47668	38.34087	1224.03613	-1076.54907	
4435	44.340	-758.47534	-43.66228	-661.36176	812.38660	-44.93345	-638.75415	-688.82050	47.05588	472.17139	725.23859	51.20180	574.59052	38.15174	1224.63452	-1076.04126	
4436	44.350	-758.17047	-43.39130	-661.21619	812.58197	-44.60081	-638.74683	-688.91199	46.83855	472.22107	725.22717	50.97032	574.60974	38.43274	1225.35950	-1075.37854	
4437	44.360	-757.87018	-43.01755	-661.23834	812.73798	-44.29122	-638.69812	-688.92889	46.96787	472.04495	725.41516	50.62080	574.71863	38.73679	1225.78601	-1074.91174	
4438	44.370	-757.62854	-42.77066	-661.12488	812.82159	-44.08511	-638.69598	-688.78516	46.77438	472.01300	725.64850	50.29573	574.84778	39.28555	1225.96106	-1074.33459	
4439	44.380	-757.53265	-42.94815	-661.25854	812.89087	-43.84238	-638.63104	-688.55231	46.47769	472.14050	725.81403	50.07714	574.93701	39.31501	1226.34045	-1073.82129	
4440	44.390	-757.57391	-42.58202	-661.12494	813.01117	-43.34840	-638.58459	-688.30798	46.14515	472.30060	726.10925	49.59984	575.04462	39.25408	1227.31946	-1073.05603	
4441	44.400	-757.33002	-41.97986	-660.82507	813.16058	-42.96284	-638.55310	-688.16656	46.02180	472.30249	726.12494	49.46553	575.19220	39.17051	1227.75867	-1072.58228	
4442	44.410	-757.12347	-41.63291	-660.72443	813.38843	-42.64220	-638.51801	-688.08191	45.81110	472.31967	726.19257	49.36329	575.22314	38.95612	1228.09216	-1071.57959	
4443	44.420	-756.86926	-41.13773	-660.68860	813.48132	-42.37729	-638.48969	-687.90411	45.58033	472.44043	726.41412	49.16978	575.28357	39.95466	1228.80554	-1071.12256	
4444	44.430	-756.83203	-40.50483	-660.52490	813.68256	-41.81826	-638.42230	-687.85492	45.34821	472.66727	726.73926	48.91561	575.33411	39.93786	1229.49243	-1070.30286	
4445	44.440	-756.84869	-40.48268	-660.21533	813.80237	-41.40109	-638.40173	-687.77185	45.01237	472.96704	726.91119	48.33676	575.50146	39.92974	1230.18152	-1069.60950	
4446	44.450	-757.04968	-39.74009	-660.17572	813.99780	-40.98280	-638.25397	-687.57056	44.72932	473.06326	726.88843	47.80472	575.70544	39.89371	1230.96973	-1068.87805	
